<svg xmlns="http://www.w3.org/2000/svg" viewBox="0 0 1200 400" role="img" aria-labelledby="title desc">
  <title id="title">WAR logo</title>
  <desc id="desc">Single-color stylized sci-fi silhouette logo spelling WAR.</desc>
  <path fill="currentColor" d="M40 320 L90 80 H170 L220 240 L265 130 L340 130 L385 240 L435 80 H515 L565 320 H470 L440 165 L385 320 H325 L270 165 L240 320 Z
M610 320 L705 80 H830 L925 320 H835 L818 275 H717 L700 320 Z
M742 205 H793 L768 134 Z
M980 320 L980 80 H1135 Q1175 80 1197 100 Q1218 120 1218 155 Q1218 183 1204 202 Q1190 220 1160 233 L1228 320 H1123 L1068 247 H1070 L1068 246 H1070 Q1098 246 1110 236 Q1122 226 1122 205 Q1122 183 1110 173 Q1098 163 1069 163 H1070 L1070 320 Z"/>
  <path fill="currentColor" d="M56 344 L88 344 L98 304 L70 304 Z M503 344 L535 344 L527 304 L495 304 Z M626 344 L659 344 L671 312 L638 312 Z M867 344 L900 344 L888 312 L855 312 Z M996 344 L1038 344 L1038 312 L1004 312 Z" opacity="0.9"/>
  <path fill="currentColor" d="M70 56 L515 56 L486 98 L99 98 Z M640 56 L801 56 L829 98 L623 98 Z M1000 56 L1150 56 L1115 98 L1000 98 Z" opacity="0.9"/>
</svg>
